# xmcd
#
# Track frame offsets: 
#        150
#        29303
#        56448
#        87690
#        108950
#        128301
#        160227
#        191645
#        210977
#        236416
#        258659
#        283153
#        301476
#        322785
#
# Disc length: 4580 seconds
#
# Revision: 6
# Processed by: cddbd v1.5.1PL0 Copyright (c) Steve Scherf et al.
# Submitted via: ExactAudioCopy v0.95a5
#
DISCID=b911e20e
DTITLE=Various Artist - Smooth Jazz Cafe - Vol. 03
DYEAR=2001
DGENRE=Jazz
TTITLE0=Marc Jordan - This Is How Men Cry, Charlie Parker Loves Me
TTITLE1=Jimmy Haslip - Los Feliz
TTITLE2=Kenny Loggins - Conviction Of The Heart
TTITLE3=Peter White and Basia - Just Another Day
TTITLE4=Patrick Leonard - The Slough
TTITLE5=Ella Fitzgerald - Bewitched
TTITLE6=Chuck Mangione - Children Of Sanchez
TTITLE7=Grover Washington Jr. - Soulful Strut
TTITLE8=Anna Maria Jopek - Poranne £zy
TTITLE9=Keiko Matsiu - Night Hawk's Dream
TTITLE10=Sovory - Love Is Still Enough
TTITLE11=St. Germain - Rose Rouge
TTITLE12=Till Bronner - Have You Met Chet?
TTITLE13=Marc Antoine - Sunland
EXTD=YEAR: 2001
EXTT0=
EXTT1=
EXTT2=
EXTT3=
EXTT4=
EXTT5=
EXTT6=
EXTT7=
EXTT8=
EXTT9=
EXTT10=
EXTT11=
EXTT12=
EXTT13=
PLAYORDER=
